<?xml version="1.0" standalone="no"?>
<!DOCTYPE svg PUBLIC "-//W3C//DTD SVG 20010904//EN"
 "http://www.w3.org/TR/2001/REC-SVG-20010904/DTD/svg10.dtd">
<svg version="1.0" xmlns="http://www.w3.org/2000/svg"
 width="736.000000pt" height="736.000000pt" viewBox="0 0 736.000000 736.000000"
 preserveAspectRatio="xMidYMid meet">
<metadata>
Created by potrace 1.14, written by Peter Selinger 2001-2017
</metadata>
<g transform="translate(0.000000,736.000000) scale(0.100000,-0.100000)"
fill="#000000" stroke="none">
<path d="M9 6416 c0 -17 -1 -1279 -2 -2804 l-2 -2772 716 0 715 0 -1 1288 c0
708 1 1297 3 1309 4 22 5 22 243 22 l238 0 23 -32 c12 -18 26 -33 30 -35 4 -2
8 -8 8 -12 0 -5 54 -86 120 -180 66 -93 120 -175 120 -180 0 -6 4 -10 8 -10 9
0 62 -77 62 -90 0 -5 4 -10 8 -12 8 -3 100 -131 127 -176 6 -10 13 -19 16 -22
3 -3 61 -86 129 -185 68 -99 126 -182 129 -185 3 -3 11 -13 16 -22 6 -9 48
-72 95 -139 173 -249 305 -438 384 -552 23 -32 46 -65 51 -74 6 -9 15 -24 22
-32 42 -56 183 -262 183 -269 0 -4 9 -14 20 -22 11 -8 20 -18 20 -23 0 -8 52
-87 75 -113 6 -7 39 -56 75 -109 36 -53 73 -108 83 -121 l18 -24 861 0 860 0
-58 83 c-32 45 -81 116 -108 157 -28 41 -55 80 -61 86 -5 6 -46 65 -90 129
-44 65 -88 126 -98 137 -9 10 -17 22 -17 26 0 4 -7 17 -15 27 -62 83 -85 116
-85 124 0 5 -4 11 -8 13 -5 2 -25 28 -45 58 -20 30 -40 60 -45 65 -14 18 -167
237 -177 253 -15 25 -148 216 -155 222 -3 3 -34 48 -69 100 -36 52 -68 97 -73
98 -4 2 -8 9 -8 16 0 7 -8 21 -17 32 -10 11 -22 27 -28 36 -10 16 -82 120
-185 268 -33 47 -67 93 -75 103 -8 9 -15 20 -15 24 0 3 -12 22 -28 42 -15 20
-31 43 -37 53 -5 9 -41 61 -79 115 -38 54 -99 141 -135 193 -57 84 -88 126
-121 167 -6 7 -10 15 -10 18 0 3 -17 29 -38 58 -21 28 -59 84 -85 122 -27 39
-77 111 -113 160 -35 50 -67 97 -71 105 -4 8 -14 23 -22 32 -9 9 -24 30 -33
46 l-17 29 60 79 c33 43 65 86 72 94 7 8 39 51 72 95 33 44 65 85 70 91 6 7
19 24 30 40 11 15 43 57 70 93 28 36 129 170 225 296 95 127 178 235 184 241
6 6 18 22 26 34 13 20 50 68 83 110 7 9 93 123 193 255 271 360 451 597 473
625 32 41 165 217 186 246 11 15 29 39 40 53 11 14 26 33 32 42 11 14 -67 15
-810 15 l-821 -1 -86 -111 c-47 -62 -141 -187 -210 -279 -69 -91 -130 -172
-135 -178 -12 -13 -8 -9 -154 -203 -58 -77 -107 -141 -111 -144 -3 -3 -17 -21
-30 -40 -13 -19 -27 -37 -30 -40 -3 -3 -17 -21 -30 -40 -27 -38 -48 -65 -67
-85 -7 -8 -13 -16 -13 -20 0 -4 -6 -12 -12 -19 -7 -7 -22 -25 -33 -40 -16 -22
-106 -141 -152 -201 -16 -20 -131 -173 -253 -335 -68 -91 -127 -167 -130 -170
-3 -3 -82 -106 -175 -230 -93 -124 -173 -226 -177 -228 -4 -2 -8 -8 -8 -14 0
-5 -6 -15 -13 -22 -6 -7 -21 -25 -32 -40 -83 -114 -134 -174 -137 -163 -2 6
-3 595 -3 1308 l1 1295 -713 0 -713 0 -1 -30z"/>
<path d="M5811 2360 l-35 -5 0 -755 0 -755 754 0 753 0 1 748 c1 412 -2 753
-5 759 -6 10 -1402 18 -1468 8z"/>
</g>
</svg>
